<svg width="887" height="373" viewBox="0 0 887 373" fill="none" xmlns="http://www.w3.org/2000/svg">
<g clip-path="url(#clip0_364_1728)">
<circle cx="261.271" cy="177.778" r="22.2906" fill="#005F61"/>
<circle cx="333.094" cy="170.347" r="24.7674" fill="#005F61"/>
<circle cx="196.875" cy="177.778" r="17.3372" fill="#005F61"/>
<circle cx="721.942" cy="148.058" r="47.058" fill="#005F61"/>
<circle cx="608.011" cy="153.014" r="42.1045" fill="#005F61"/>
<circle cx="508.941" cy="162.921" r="37.1511" fill="#005F61"/>
<circle cx="414.825" cy="138.157" r="32.1976" fill="#A8005D"/>
<circle cx="142.384" cy="187.691" r="12.3837" fill="#005F61"/>
<path d="M416.952 260.59C416.952 261.693 416.759 262.774 416.372 263.834C415.999 264.88 415.391 265.861 414.546 266.777C413.701 267.68 412.555 268.417 411.108 268.99C409.676 269.549 407.986 269.828 406.038 269.828H400.151V281H391.171V251.223H406.038C407.986 251.223 409.676 251.509 411.108 252.082C412.555 252.655 413.701 253.4 414.546 254.316C415.391 255.233 415.999 256.229 416.372 257.303C416.759 258.377 416.952 259.473 416.952 260.59ZM407.8 260.633C407.8 259.215 407.377 258.248 406.532 257.732C405.701 257.202 404.205 256.938 402.042 256.938H400.151V264.113H402.085C403.574 264.113 404.72 264.02 405.522 263.834C406.324 263.648 406.904 263.304 407.262 262.803C407.621 262.301 407.8 261.578 407.8 260.633ZM430.571 281H422.815V251.223H430.571V281ZM460.368 279.904C459.237 280.348 458.191 280.706 457.232 280.979C456.272 281.251 455.119 281.387 453.773 281.387C452.498 281.387 451.61 281.165 451.109 280.721C450.607 280.262 450.249 279.711 450.034 279.066C449.204 279.74 448.28 280.298 447.263 280.742C446.246 281.172 444.914 281.387 443.267 281.387C441.677 281.387 440.388 281.115 439.4 280.57C438.426 280.012 437.738 279.317 437.337 278.486C436.95 277.641 436.757 276.775 436.757 275.887C436.757 274.54 437.094 273.43 437.767 272.557C438.454 271.669 439.371 270.945 440.517 270.387C441.663 269.828 443.181 269.248 445.072 268.646C446.146 268.303 446.955 268.045 447.499 267.873C448.058 267.687 448.473 267.544 448.745 267.443C449.018 267.343 449.304 267.214 449.605 267.057C449.605 265.997 449.39 265.166 448.96 264.564C448.531 263.963 447.6 263.662 446.167 263.662C444.477 263.662 442.909 264.035 441.462 264.779C440.016 265.524 438.691 266.484 437.488 267.658V261.729C438.447 261.041 439.486 260.482 440.603 260.053C441.72 259.609 442.887 259.279 444.105 259.064C445.322 258.85 446.554 258.742 447.8 258.742C450.965 258.742 453.343 259.358 454.933 260.59C456.537 261.807 457.339 263.49 457.339 265.639V274.082C457.339 274.884 457.411 275.486 457.554 275.887C457.712 276.273 457.991 276.467 458.392 276.467C458.879 276.467 459.538 276.259 460.368 275.844V279.904ZM449.605 275.715V270.537C447.771 271.282 446.432 271.955 445.587 272.557C444.742 273.144 444.32 273.946 444.32 274.963C444.32 275.693 444.527 276.252 444.943 276.639C445.372 277.025 445.866 277.219 446.425 277.219C446.955 277.219 447.478 277.076 447.993 276.789C448.523 276.488 449.06 276.13 449.605 275.715ZM481.83 279.732C481.028 280.119 479.917 280.492 478.5 280.85C477.096 281.208 475.75 281.387 474.46 281.387C468.889 281.387 466.103 278.665 466.103 273.223V264.5H462.601V263.146L472.978 252.576H473.859V259.129H481.25V264.5H473.859V271.504C473.859 272.32 473.909 272.979 474.009 273.48C474.11 273.982 474.389 274.404 474.847 274.748C475.32 275.077 476.029 275.242 476.974 275.242C478.206 275.242 479.824 274.727 481.83 273.695V279.732ZM501.658 256.766C500.483 256.493 499.531 256.357 498.801 256.357C497.97 256.357 497.318 256.63 496.845 257.174C496.387 257.718 496.158 258.492 496.158 259.494V260.268H500.068V265.51H496.158V281H488.402V265.51H484.836V260.268H488.402V259.881C488.402 258.348 488.696 256.902 489.283 255.541C489.885 254.166 490.88 253.035 492.269 252.146C493.659 251.258 495.492 250.814 497.769 250.814C499.058 250.814 500.355 250.951 501.658 251.223V256.766ZM529.156 270.043C529.156 272.22 528.684 274.161 527.738 275.865C526.793 277.57 525.375 278.916 523.484 279.904C521.608 280.893 519.316 281.387 516.609 281.387C513.902 281.387 511.604 280.893 509.713 279.904C507.837 278.916 506.426 277.57 505.48 275.865C504.549 274.161 504.084 272.22 504.084 270.043C504.084 268.396 504.342 266.899 504.857 265.553C505.387 264.206 506.182 263.018 507.242 261.986C508.316 260.941 509.634 260.139 511.195 259.58C512.757 259.021 514.561 258.742 516.609 258.742C518.672 258.742 520.491 259.029 522.066 259.602C523.656 260.16 524.967 260.948 525.998 261.965C527.044 262.982 527.831 264.171 528.361 265.531C528.891 266.892 529.156 268.396 529.156 270.043ZM521.014 270.043C521.014 268.31 520.634 266.956 519.875 265.982C519.13 264.994 518.042 264.5 516.609 264.5C515.191 264.5 514.103 264.994 513.344 265.982C512.599 266.956 512.227 268.31 512.227 270.043C512.227 271.762 512.606 273.122 513.365 274.125C514.124 275.128 515.206 275.629 516.609 275.629C518.042 275.629 519.13 275.135 519.875 274.146C520.634 273.144 521.014 271.776 521.014 270.043ZM554.184 260.311L551.326 268.066C550.152 266.949 548.963 266.391 547.76 266.391C546.671 266.391 545.726 266.763 544.924 267.508C544.136 268.238 543.377 269.599 542.647 271.59V281H534.912V259.129H542.647V264.414C543.134 263.111 543.993 261.843 545.225 260.611C546.457 259.365 547.903 258.742 549.565 258.742C550.438 258.742 551.198 258.871 551.842 259.129C552.501 259.387 553.281 259.781 554.184 260.311ZM597.387 281H589.653V269.334C589.653 267.787 589.395 266.634 588.879 265.875C588.378 265.102 587.576 264.715 586.473 264.715C585.399 264.715 584.518 265.044 583.831 265.703C583.143 266.348 582.456 267.164 581.768 268.152V281H574.034V269.334C574.034 267.859 573.797 266.72 573.325 265.918C572.852 265.116 572.014 264.715 570.811 264.715C570.238 264.715 569.708 264.829 569.221 265.059C568.749 265.288 568.362 265.546 568.061 265.832C567.76 266.118 567.395 266.541 566.965 267.1C566.536 267.658 566.264 268.009 566.149 268.152V281H558.415V259.129H566.149V262.266C567.309 261.034 568.491 260.139 569.694 259.58C570.897 259.021 572.286 258.742 573.862 258.742C574.607 258.742 575.316 258.814 575.989 258.957C576.662 259.086 577.321 259.315 577.965 259.645C578.624 259.974 579.219 260.425 579.749 260.998C580.278 261.571 580.701 262.237 581.016 262.996C582.262 261.592 583.551 260.533 584.883 259.816C586.23 259.1 587.777 258.742 589.524 258.742C591.271 258.742 592.732 259.093 593.907 259.795C595.096 260.497 595.969 261.514 596.528 262.846C597.101 264.163 597.387 265.768 597.387 267.658V281ZM652.534 281H643.339L640.911 274.963H627.977L625.507 281H616.311L629.481 251.223H639.407L652.534 281ZM638.849 269.785L634.487 258.914L630.083 269.785H638.849ZM680.118 281H672.362V279.023C671.546 279.711 670.68 280.277 669.763 280.721C668.861 281.165 667.607 281.387 666.003 281.387C664.413 281.387 662.852 280.993 661.32 280.205C659.787 279.417 658.527 278.193 657.538 276.531C656.55 274.855 656.056 272.75 656.056 270.215C656.056 268.224 656.428 266.362 657.173 264.629C657.918 262.882 659.085 261.464 660.675 260.375C662.265 259.286 664.213 258.742 666.519 258.742C667.951 258.742 669.111 258.9 669.999 259.215C670.887 259.53 671.675 259.931 672.362 260.418V251.223H680.118V281ZM672.362 274.039V265.682C671.46 265.18 670.751 264.822 670.236 264.607C669.734 264.393 669.14 264.285 668.452 264.285C667.235 264.285 666.218 264.801 665.402 265.832C664.599 266.863 664.198 268.267 664.198 270.043C664.198 271.977 664.621 273.387 665.466 274.275C666.325 275.149 667.321 275.586 668.452 275.586C669.383 275.586 670.135 275.443 670.708 275.156C671.281 274.855 671.833 274.483 672.362 274.039Z" fill="black"/>
</g>
<defs>
<clipPath id="clip0_364_1728">
<rect width="887" height="373" fill="white"/>
</clipPath>
</defs>
</svg>
