<svg width="887" height="373" viewBox="0 0 887 373" fill="none" xmlns="http://www.w3.org/2000/svg">
<g clip-path="url(#clip0_255_595)">
<path d="M434.382 229.885H444.15C446.834 229.885 448.869 230.501 450.255 231.733C451.641 232.943 452.334 234.725 452.334 237.079V238.828C452.334 241.116 451.63 242.865 450.222 244.075C448.836 245.263 446.812 245.857 444.15 245.857H439.365V242.227H442.896C444.392 242.227 445.492 241.908 446.196 241.27C446.922 240.61 447.285 239.62 447.285 238.3V237.541C447.285 236.133 446.933 235.11 446.229 234.472C445.525 233.812 444.414 233.482 442.896 233.482H438.408L439.596 232.327V252.985H434.382V229.885ZM462.733 228.565V252.985H457.519V228.565H462.733ZM480.317 246.583V242.293C480.317 240.995 479.921 240.049 479.129 239.455C478.337 238.839 477.083 238.531 475.367 238.531C474.311 238.531 473.255 238.674 472.199 238.96C471.143 239.224 470.131 239.609 469.163 240.115L468.47 236.617C469.174 236.265 469.999 235.957 470.945 235.693C471.891 235.429 472.859 235.22 473.849 235.066C474.861 234.912 475.818 234.835 476.72 234.835C479.712 234.835 481.945 235.451 483.419 236.683C484.915 237.915 485.663 239.785 485.663 242.293V252.985H481.538L480.317 246.583ZM474.641 253.315C472.551 253.315 470.901 252.864 469.691 251.962C468.503 251.038 467.909 249.751 467.909 248.101V247.507C467.909 245.857 468.503 244.581 469.691 243.679C470.901 242.755 472.606 242.293 474.806 242.293C477.072 242.293 478.854 242.744 480.152 243.646C481.472 244.526 482.132 245.78 482.132 247.408V248.035C482.132 249.707 481.472 251.005 480.152 251.929C478.832 252.853 476.995 253.315 474.641 253.315ZM476.126 250.642C477.38 250.642 478.37 250.389 479.096 249.883C479.822 249.377 480.185 248.695 480.185 247.837V247.474C480.185 246.66 479.833 246.022 479.129 245.56C478.447 245.098 477.49 244.867 476.258 244.867C475.136 244.867 474.256 245.098 473.618 245.56C472.98 246 472.661 246.671 472.661 247.573V247.903C472.661 248.783 472.969 249.465 473.585 249.949C474.201 250.411 475.048 250.642 476.126 250.642ZM497.956 253.315C496.042 253.315 494.645 252.842 493.765 251.896C492.885 250.95 492.445 249.476 492.445 247.474V235.924L493.93 230.908H497.626V246.451C497.626 247.529 497.824 248.299 498.22 248.761C498.638 249.201 499.331 249.421 500.299 249.421C500.651 249.421 501.014 249.388 501.388 249.322C501.784 249.234 502.169 249.113 502.543 248.959L503.137 252.259C502.675 252.457 502.158 252.644 501.586 252.82C501.014 252.974 500.409 253.095 499.771 253.183C499.155 253.271 498.55 253.315 497.956 253.315ZM489.442 235.165H502.246V238.762H489.442V235.165ZM508.558 234.967C508.558 232.657 509.13 230.886 510.274 229.654C511.44 228.422 513.101 227.806 515.257 227.806C516.027 227.806 516.83 227.872 517.666 228.004C518.524 228.136 519.261 228.312 519.877 228.532L519.283 231.865C518.909 231.711 518.513 231.601 518.095 231.535C517.699 231.447 517.303 231.403 516.907 231.403C515.829 231.403 515.037 231.689 514.531 232.261C514.025 232.833 513.772 233.735 513.772 234.967V252.985H508.558V234.967ZM505.753 235.165H517.897V238.762H505.753V235.165ZM530.597 253.315C528.529 253.315 526.747 252.985 525.251 252.325C523.777 251.665 522.633 250.719 521.819 249.487C521.027 248.255 520.631 246.792 520.631 245.098V243.052C520.631 241.336 521.027 239.873 521.819 238.663C522.633 237.431 523.788 236.485 525.284 235.825C526.78 235.165 528.551 234.835 530.597 234.835C532.665 234.835 534.436 235.165 535.91 235.825C537.406 236.485 538.55 237.431 539.342 238.663C540.156 239.873 540.563 241.336 540.563 243.052V245.098C540.563 246.814 540.156 248.288 539.342 249.52C538.55 250.73 537.406 251.665 535.91 252.325C534.436 252.985 532.665 253.315 530.597 253.315ZM530.597 249.454C532.049 249.454 533.204 249.058 534.062 248.266C534.942 247.452 535.382 246.374 535.382 245.032V243.118C535.382 241.754 534.942 240.676 534.062 239.884C533.204 239.092 532.049 238.696 530.597 238.696C529.145 238.696 527.979 239.103 527.099 239.917C526.241 240.709 525.812 241.776 525.812 243.118V245.032C525.812 246.374 526.241 247.452 527.099 248.266C527.979 249.058 529.145 249.454 530.597 249.454ZM545.943 235.165H550.068L551.157 242.095V252.985H545.943V235.165ZM549.936 243.877C549.936 240.907 550.464 238.663 551.52 237.145C552.576 235.605 554.127 234.835 556.173 234.835C556.547 234.835 556.921 234.868 557.295 234.934C557.691 234.978 558.076 235.044 558.45 235.132L558.153 239.521C557.449 239.323 556.701 239.224 555.909 239.224C554.325 239.224 553.137 239.719 552.345 240.709C551.553 241.699 551.157 243.206 551.157 245.23L549.936 243.877ZM589.049 243.415C589.049 241.809 588.752 240.632 588.158 239.884C587.564 239.136 586.64 238.762 585.386 238.762C583.89 238.762 582.746 239.301 581.954 240.379C581.162 241.457 580.766 243.019 580.766 245.065L578.885 247.738V245.461C578.885 242.029 579.622 239.4 581.096 237.574C582.57 235.748 584.682 234.835 587.432 234.835C589.786 234.835 591.513 235.473 592.613 236.749C593.713 238.003 594.263 239.972 594.263 242.656V252.985H589.049V243.415ZM562.055 235.165H566.18L567.269 240.676V252.985H562.055V235.165ZM575.552 243.415C575.552 241.809 575.255 240.632 574.661 239.884C574.067 239.136 573.132 238.762 571.856 238.762C570.36 238.762 569.216 239.301 568.424 240.379C567.654 241.457 567.269 243.019 567.269 245.065L565.421 247.738V245.461C565.421 242.029 566.147 239.4 567.599 237.574C569.073 235.748 571.185 234.835 573.935 234.835C576.267 234.835 577.983 235.473 579.083 236.749C580.205 238.003 580.766 239.972 580.766 242.656V252.985H575.552V243.415ZM615.294 229.885H623.511L631.233 252.985H625.953L619.452 233.152H619.32L612.819 252.985H607.539L615.294 229.885ZM613.545 244.075H625.227V247.705H613.545V244.075ZM642.239 253.315C639.753 253.315 637.817 252.611 636.431 251.203C635.067 249.773 634.385 247.738 634.385 245.098V243.052C634.385 240.434 635.078 238.41 636.464 236.98C637.872 235.55 639.841 234.835 642.371 234.835C644.153 234.835 645.704 235.187 647.024 235.891C648.366 236.573 649.4 237.563 650.126 238.861C650.874 240.137 651.248 241.644 651.248 243.382V244.669C651.248 246.407 650.874 247.925 650.126 249.223C649.378 250.521 648.333 251.533 646.991 252.259C645.649 252.963 644.065 253.315 642.239 253.315ZM643.79 249.586C645.44 249.586 646.727 249.124 647.651 248.2C648.575 247.276 649.037 246 649.037 244.372V243.745C649.037 242.139 648.564 240.885 647.618 239.983C646.694 239.081 645.418 238.63 643.79 238.63C642.47 238.63 641.436 239.037 640.688 239.851C639.94 240.665 639.566 241.809 639.566 243.283V244.933C639.566 246.385 639.94 247.529 640.688 248.365C641.458 249.179 642.492 249.586 643.79 249.586ZM649.037 247.705V228.565H654.251V252.985H650.951L649.037 247.705Z" fill="black"/>
<circle cx="252.447" cy="173.299" r="22.1511" fill="#112A46"/>
<circle cx="323.818" cy="165.915" r="24.6124" fill="#112A46"/>
<circle cx="188.456" cy="173.298" r="17.2287" fill="#112A46"/>
<circle cx="710.236" cy="143.763" r="46.7635" fill="#112A46"/>
<circle cx="597.018" cy="148.686" r="41.841" fill="#112A46"/>
<circle cx="498.569" cy="158.532" r="36.9185" fill="#112A46"/>
<circle cx="405.04" cy="133.919" r="31.9961" fill="#9EB700"/>
<circle cx="134.306" cy="183.144" r="12.3062" fill="#112A46"/>
<circle cx="251.271" cy="173.778" r="22.2906" fill="#005F61"/>
<circle cx="323.094" cy="166.347" r="24.7674" fill="#005F61"/>
<circle cx="186.875" cy="173.778" r="17.3372" fill="#005F61"/>
<circle cx="711.942" cy="144.058" r="47.058" fill="#005F61"/>
<circle cx="598.011" cy="149.014" r="42.1045" fill="#005F61"/>
<circle cx="498.941" cy="158.921" r="37.1511" fill="#005F61"/>
<circle cx="404.825" cy="134.157" r="32.1976" fill="#A8005D"/>
<circle cx="132.384" cy="183.691" r="12.3837" fill="#005F61"/>
</g>
<defs>
<clipPath id="clip0_255_595">
<rect width="887" height="373" fill="white"/>
</clipPath>
</defs>
</svg>
